<?xml version="1.0" standalone="no"?>
<!DOCTYPE svg PUBLIC "-//W3C//DTD SVG 20010904//EN"
 "http://www.w3.org/TR/2001/REC-SVG-20010904/DTD/svg10.dtd">
<svg version="1.0" xmlns="http://www.w3.org/2000/svg"
 width="2133.000000pt" height="2133.000000pt" viewBox="0 0 2133.000000 2133.000000"
 preserveAspectRatio="xMidYMid meet">

<g transform="translate(0.000000,2133.000000) scale(0.100000,-0.100000)"
fill="#000000" stroke="none">
<path d="M4095 21319 c-831 -67 -1654 -378 -2309 -872 -329 -247 -657 -576
-903 -902 -501 -667 -806 -1480 -873 -2329 -14 -178 -14 -12924 0 -13102 67
-849 372 -1662 873 -2329 245 -326 576 -657 902 -902 667 -501 1480 -806 2329
-873 178 -14 12924 -14 13102 0 849 67 1662 372 2329 873 326 245 657 576 902
902 501 667 806 1480 873 2329 14 178 14 12924 0 13102 -67 849 -372 1662
-873 2329 -245 326 -576 657 -902 902 -667 501 -1480 806 -2329 873 -156 12
-12969 11 -13121 -1z m13025 -1779 c239 -22 513 -84 721 -165 953 -372 1608
-1241 1699 -2255 14 -160 14 -12750 0 -12910 -91 -1014 -746 -1883 -1699
-2255 -208 -81 -482 -143 -721 -165 -160 -14 -12750 -14 -12910 0 -239 22
-513 84 -721 165 -953 372 -1608 1241 -1699 2255 -14 160 -14 12750 0 12910
91 1014 746 1883 1699 2255 200 78 482 144 701 164 140 12 12786 13 12930 1z"/>
<path d="M14400 13283 c-30 -31 -46 -50 -35 -42 23 16 95 88 95 95 0 9 -7 2
-60 -53z"/>
</g>
</svg>
